<svg width="28" height="22" viewBox="0 0 28 22" fill="none" xmlns="http://www.w3.org/2000/svg">
<rect width="28" height="22" rx="3" fill="#1A1A1A"/>
<path d="M11.168 14C10.944 14 10.832 13.888 10.832 13.664V8.912C10.832 8.688 10.944 8.576 11.168 8.576H13.04C13.528 8.576 13.9013 8.70667 14.16 8.968C14.4213 9.22667 14.552 9.6 14.552 10.088V10.328C14.552 10.816 14.4213 11.1907 14.16 11.452C13.9013 11.7107 13.528 11.84 13.04 11.84H11.504V13.664C11.504 13.888 11.392 14 11.168 14ZM11.504 11.168H13.04C13.344 11.168 13.56 11.104 13.688 10.976C13.816 10.848 13.88 10.632 13.88 10.328V10.088C13.88 9.78667 13.816 9.572 13.688 9.444C13.56 9.31333 13.344 9.248 13.04 9.248H11.504V11.168ZM16.9863 14C16.5383 14 16.2049 13.8907 15.9863 13.672C15.7676 13.4533 15.6583 13.12 15.6583 12.672C15.6583 12.224 15.7663 11.8907 15.9823 11.672C16.2009 11.4533 16.5356 11.344 16.9863 11.344H18.6783C18.6623 11.064 18.5889 10.8733 18.4583 10.772C18.3276 10.668 18.1036 10.616 17.7863 10.616H17.3223C17.0556 10.616 16.8569 10.6347 16.7263 10.672C16.5956 10.7067 16.5036 10.7707 16.4503 10.864C16.4023 10.976 16.3529 11.0533 16.3023 11.096C16.2516 11.1387 16.1756 11.16 16.0743 11.16C15.9623 11.16 15.8743 11.1293 15.8103 11.068C15.7463 11.004 15.7276 10.92 15.7543 10.816C15.8343 10.5147 16.0009 10.2947 16.2543 10.156C16.5103 10.0147 16.8663 9.944 17.3223 9.944H17.7863C18.3196 9.944 18.7143 10.072 18.9703 10.328C19.2263 10.584 19.3543 10.9787 19.3543 11.512V13.664C19.3543 13.888 19.2423 14 19.0182 14C18.7943 14 18.6823 13.888 18.6823 13.664V13.484C18.3969 13.828 17.9809 14 17.4343 14H16.9863ZM16.9863 13.328H17.4343C17.6316 13.328 17.8169 13.3107 17.9903 13.276C18.1636 13.2387 18.3116 13.172 18.4343 13.076C18.5596 12.98 18.6423 12.8427 18.6823 12.664V12.016H16.9863C16.7223 12.016 16.5463 12.06 16.4583 12.148C16.3729 12.236 16.3303 12.4107 16.3303 12.672C16.3303 12.936 16.3729 13.112 16.4583 13.2C16.5463 13.2853 16.7223 13.328 16.9863 13.328ZM22.0134 15.6C21.6267 15.6 21.3374 15.5027 21.1454 15.308C20.956 15.116 20.8614 14.8267 20.8614 14.44C20.8614 14.216 20.9734 14.104 21.1974 14.104C21.4214 14.104 21.5334 14.216 21.5334 14.44C21.5334 14.64 21.5627 14.7707 21.6214 14.832C21.6827 14.896 21.8134 14.928 22.0134 14.928H23.5654C23.7627 14.928 23.892 14.896 23.9534 14.832C24.0147 14.7707 24.0454 14.64 24.0454 14.44V13.424C23.8854 13.664 23.6987 13.82 23.4854 13.892C23.2747 13.964 23.0454 14 22.7974 14H22.4054C21.8774 14 21.488 13.8747 21.2374 13.624C20.9867 13.3733 20.8614 12.9867 20.8614 12.464V10.28C20.8614 10.056 20.9734 9.944 21.1974 9.944C21.4214 9.944 21.5334 10.056 21.5334 10.28V12.464C21.5334 12.8 21.5934 13.028 21.7134 13.148C21.836 13.268 22.0667 13.328 22.4054 13.328H22.7974C23.2347 13.328 23.552 13.2573 23.7494 13.116C23.9467 12.972 24.0454 12.7547 24.0454 12.464V10.28C24.0454 10.056 24.1574 9.944 24.3814 9.944C24.6054 9.944 24.7174 10.056 24.7174 10.28V14.44C24.7174 14.8267 24.6214 15.116 24.4294 15.308C24.2374 15.5027 23.9494 15.6 23.5654 15.6H22.0134Z" fill="white"/>
<path d="M8.83234 14.6389C8.38004 15.1139 7.88621 15.0389 7.41084 14.8139C6.90778 14.5839 6.44625 14.5739 5.9155 14.8139C5.2509 15.1238 4.90014 15.0339 4.50323 14.6389C2.25098 12.1242 2.58328 8.29471 5.14013 8.15473C5.76319 8.18972 6.19703 8.52468 6.56163 8.55468C7.10623 8.43469 7.62776 8.08974 8.20928 8.13473C8.90618 8.19472 9.43232 8.49468 9.77847 9.03462C8.33851 9.9695 8.68004 12.0242 10 12.5992C9.73693 13.3491 9.3954 14.094 8.82772 14.6439L8.83234 14.6389V14.6389ZM6.51548 8.12473C6.44625 7.00987 7.28161 6.08999 8.24159 6C8.37543 7.28984 7.16162 8.24972 6.51548 8.12473Z" fill="white"/>
</svg>
