<svg width="28" height="22" viewBox="0 0 28 22" fill="none" xmlns="http://www.w3.org/2000/svg">
<rect width="28" height="22" rx="3" fill="#1A1A1A"/>
<path d="M13.574 7.574C14.414 7.574 15.026 7.739 15.41 8.069C15.794 8.399 15.986 8.864 15.986 9.464C15.986 9.728 15.941 9.983 15.851 10.229C15.767 10.469 15.626 10.685 15.428 10.877C15.23 11.069 14.966 11.222 14.636 11.336C14.306 11.444 13.901 11.498 13.421 11.498H12.683V14H11.873V7.574H13.574ZM13.502 8.267H12.683V10.805H13.331C13.739 10.805 14.078 10.763 14.348 10.679C14.618 10.589 14.819 10.448 14.951 10.256C15.083 10.064 15.149 9.812 15.149 9.5C15.149 9.086 15.017 8.777 14.753 8.573C14.489 8.369 14.072 8.267 13.502 8.267ZM19.0412 9.095C19.6292 9.095 20.0642 9.224 20.3462 9.482C20.6282 9.74 20.7692 10.151 20.7692 10.715V14H20.1932L20.0402 13.316H20.0042C19.8662 13.49 19.7222 13.637 19.5722 13.757C19.4282 13.871 19.2602 13.955 19.0682 14.009C18.8822 14.063 18.6542 14.09 18.3842 14.09C18.0962 14.09 17.8352 14.039 17.6012 13.937C17.3732 13.835 17.1932 13.679 17.0612 13.469C16.9292 13.253 16.8632 12.983 16.8632 12.659C16.8632 12.179 17.0522 11.81 17.4302 11.552C17.8082 11.288 18.3902 11.144 19.1762 11.12L19.9952 11.093V10.805C19.9952 10.403 19.9082 10.124 19.7342 9.968C19.5602 9.812 19.3142 9.734 18.9962 9.734C18.7442 9.734 18.5042 9.773 18.2762 9.851C18.0482 9.923 17.8352 10.007 17.6372 10.103L17.3942 9.509C17.6042 9.395 17.8532 9.299 18.1412 9.221C18.4292 9.137 18.7292 9.095 19.0412 9.095ZM19.2752 11.669C18.6752 11.693 18.2582 11.789 18.0242 11.957C17.7962 12.125 17.6822 12.362 17.6822 12.668C17.6822 12.938 17.7632 13.136 17.9252 13.262C18.0932 13.388 18.3062 13.451 18.5642 13.451C18.9722 13.451 19.3112 13.34 19.5812 13.118C19.8512 12.89 19.9862 12.542 19.9862 12.074V11.642L19.2752 11.669ZM21.5031 9.176H22.3491L23.3931 11.921C23.4531 12.083 23.5071 12.239 23.5551 12.389C23.6091 12.539 23.6571 12.686 23.6991 12.83C23.7411 12.968 23.7741 13.103 23.7981 13.235H23.8341C23.8701 13.085 23.9271 12.89 24.0051 12.65C24.0831 12.404 24.1641 12.158 24.2481 11.912L25.2291 9.176H26.0841L24.0051 14.666C23.8911 14.966 23.7561 15.227 23.6001 15.449C23.4501 15.677 23.2641 15.851 23.0421 15.971C22.8261 16.097 22.5621 16.16 22.2501 16.16C22.1061 16.16 21.9801 16.151 21.8721 16.133C21.7641 16.121 21.6711 16.106 21.5931 16.088V15.458C21.6591 15.47 21.7371 15.482 21.8271 15.494C21.9231 15.506 22.0221 15.512 22.1241 15.512C22.3101 15.512 22.4691 15.476 22.6011 15.404C22.7391 15.338 22.8561 15.239 22.9521 15.107C23.0481 14.981 23.1291 14.831 23.1951 14.657L23.4471 14.018L21.5031 9.176Z" fill="white"/>
<path d="M7.67 14.1C6.59 14.1 5.77 13.8167 5.21 13.25C4.65 12.6833 4.37 11.8967 4.37 10.89C4.37 9.82333 4.65333 8.98667 5.22 8.38C5.78667 7.76667 6.63 7.46 7.75 7.46C8.13667 7.46 8.48667 7.48333 8.8 7.53C9.11333 7.57 9.41 7.63667 9.69 7.73V8.89C9.41 8.79 9.11333 8.72 8.8 8.68C8.49333 8.63333 8.17667 8.61 7.85 8.61C7.08333 8.61 6.54 8.8 6.22 9.18C5.9 9.55333 5.74 10.1233 5.74 10.89C5.74 12.27 6.39 12.96 7.69 12.96C7.91667 12.96 8.13667 12.9433 8.35 12.91C8.57 12.87 8.76333 12.82 8.93 12.76V11.26H7.43V10.4H10.07V13.55C9.85 13.69 9.54333 13.8167 9.15 13.93C8.75667 14.0433 8.26333 14.1 7.67 14.1Z" fill="white"/>
</svg>
