<svg width="28" height="22" viewBox="0 0 28 22" fill="none" xmlns="http://www.w3.org/2000/svg">
<rect width="28" height="22" rx="3" fill="#1A1A1A"/>
<circle cx="9.5" cy="10.5" r="5.4" fill="white" stroke="black" stroke-width="0.2"/>
<circle cx="17.5" cy="10.5" r="5.4" fill="white" stroke="black" stroke-width="0.2"/>
<mask id="path-4-inside-1_1_33" fill="white">
<path fill-rule="evenodd" clip-rule="evenodd" d="M13.5 14.2749C14.4299 13.2899 15 11.9615 15 10.5C15 9.03847 14.4299 7.71008 13.5 6.72507C12.5701 7.71008 12 9.03847 12 10.5C12 11.9615 12.5701 13.2899 13.5 14.2749Z"/>
</mask>
<path fill-rule="evenodd" clip-rule="evenodd" d="M13.5 14.2749C14.4299 13.2899 15 11.9615 15 10.5C15 9.03847 14.4299 7.71008 13.5 6.72507C12.5701 7.71008 12 9.03847 12 10.5C12 11.9615 12.5701 13.2899 13.5 14.2749Z" fill="white"/>
<path d="M13.5 14.2749L13.3546 14.4122L13.5 14.5663L13.6454 14.4122L13.5 14.2749ZM13.5 6.72507L13.6454 6.58777L13.5 6.43373L13.3546 6.58777L13.5 6.72507ZM14.8 10.5C14.8 11.9085 14.2508 13.1883 13.3546 14.1376L13.6454 14.4122C14.609 13.3916 15.2 12.0146 15.2 10.5H14.8ZM13.3546 6.86236C14.2508 7.81173 14.8 9.09152 14.8 10.5H15.2C15.2 8.98541 14.609 7.60842 13.6454 6.58777L13.3546 6.86236ZM12.2 10.5C12.2 9.09152 12.7492 7.81173 13.6454 6.86236L13.3546 6.58777C12.391 7.60842 11.8 8.98541 11.8 10.5H12.2ZM13.6454 14.1376C12.7492 13.1883 12.2 11.9085 12.2 10.5H11.8C11.8 12.0146 12.391 13.3916 13.3546 14.4122L13.6454 14.1376Z" fill="black" mask="url(#path-4-inside-1_1_33)"/>
</svg>
