<svg width="28" height="22" viewBox="0 0 28 22" fill="none" xmlns="http://www.w3.org/2000/svg">
<rect width="28" height="22" rx="3" fill="#1A1A1A"/>
<g clip-path="url(#clip0_1_59)">
<path d="M5 15C2.79075 15 1 13.2092 1 11C1 8.79075 2.79075 7 5 7C7.20925 7 9 8.79075 9 11C9 13.2092 7.20925 15 5 15ZM6.6475 11.8612C6.64125 11.8062 6.6095 11.6802 6.527 11.648C6.48575 11.6317 6.45075 11.6447 6.435 11.6737C6.4095 11.719 6.4285 11.8062 6.47625 11.8837C6.52375 11.9615 6.56825 12.0002 6.6 12.0002C6.63175 12.0002 6.66025 11.9615 6.6475 11.8612V11.8612ZM6.20325 12.0813C6.1525 12.0358 6.09525 12.0132 6.0445 12.0132C6.02519 12.0122 6.0059 12.0157 5.98821 12.0235C5.97052 12.0313 5.95494 12.0432 5.94275 12.0582C5.88575 12.1295 5.91125 12.2588 6.00025 12.3365C6.03825 12.372 6.09525 12.3915 6.14925 12.3915C6.17389 12.3921 6.19834 12.3871 6.22083 12.3771C6.24332 12.367 6.26327 12.352 6.27925 12.3333C6.33025 12.262 6.30175 12.1652 6.20325 12.081V12.0813ZM2.75 10.7235C2.75 11.9515 3.7275 12.947 4.9335 12.947C5.25425 12.947 5.5715 12.8857 6.03825 12.8822C6.454 12.8822 6.911 13.031 7.4125 13.4835C7.46325 13.5288 7.53 13.4705 7.4855 13.4158C6.9935 12.779 6.5365 12.6595 6.0795 12.5557C5.52075 12.43 5.23525 12.1132 5.03525 11.7607C4.997 11.6897 4.978 11.7028 4.97475 11.7933C4.9712 11.9264 4.98083 12.0595 5.0035 12.1908H4.93675C4.14025 12.1908 3.49275 11.5315 3.49275 10.72C3.4925 9.909 4.14 9.25 4.93675 9.25C5.7335 9.25 6.381 9.90925 6.381 10.7205C6.381 10.7787 6.37775 10.837 6.3715 10.892C6.2635 10.8725 6.05725 10.8695 5.91125 10.8823C5.85725 10.8888 5.86375 10.9145 5.905 10.921C6.381 11.0115 6.708 11.312 6.784 11.8585C6.78725 11.8713 6.803 11.8745 6.8095 11.8647C7.01109 11.5183 7.11728 11.1246 7.11725 10.7238C7.1175 9.4955 6.14 8.5 4.9335 8.5C3.7275 8.5 2.75 9.4955 2.75 10.7235Z" fill="white"/>
</g>
<path d="M15.165 11.6484L14.8662 11.9941L13.9258 10.8633C13.8809 10.918 13.8369 10.9678 13.7939 11.0127C13.7529 11.0576 13.71 11.0996 13.665 11.1387L14.3887 12.1494L14.002 12.4277L13.3193 11.3936C13.1514 11.499 12.9785 11.5771 12.8008 11.6279C12.623 11.6787 12.4395 11.7041 12.25 11.7041C11.9688 11.7041 11.7109 11.6523 11.4766 11.5488C11.2422 11.4434 11.0312 11.2861 10.8438 11.0771C10.6621 10.876 10.5254 10.6533 10.4336 10.4092C10.3438 10.165 10.2988 9.90039 10.2988 9.61523C10.2988 9.30664 10.3516 9.01758 10.457 8.74805C10.5625 8.47656 10.7197 8.22363 10.9287 7.98926C11.1436 7.74707 11.3818 7.56641 11.6436 7.44727C11.9053 7.32617 12.1895 7.26562 12.4961 7.26562C12.7793 7.26562 13.0391 7.31836 13.2754 7.42383C13.5117 7.52734 13.7236 7.68262 13.9111 7.88965C14.0928 8.08887 14.2285 8.31055 14.3184 8.55469C14.4102 8.79688 14.4561 9.06055 14.4561 9.3457C14.4561 9.55469 14.4307 9.75586 14.3799 9.94922C14.3311 10.1426 14.2568 10.3301 14.1572 10.5117L15.165 11.6484ZM13.9551 9.2666C13.9551 9.05957 13.9219 8.86816 13.8555 8.69238C13.791 8.51465 13.6934 8.35254 13.5625 8.20605C13.4297 8.05566 13.2783 7.94238 13.1084 7.86621C12.9385 7.79004 12.752 7.75195 12.5488 7.75195C12.3262 7.75195 12.1201 7.79492 11.9307 7.88086C11.7412 7.9668 11.5684 8.0957 11.4121 8.26758C11.2598 8.43555 11.1455 8.61816 11.0693 8.81543C10.9932 9.0127 10.9551 9.22363 10.9551 9.44824C10.9551 9.65332 10.9873 9.84375 11.0518 10.0195C11.1182 10.1953 11.2168 10.3555 11.3477 10.5C11.4844 10.6523 11.6367 10.7666 11.8047 10.8428C11.9746 10.9189 12.1602 10.957 12.3613 10.957C12.4609 10.957 12.5596 10.9473 12.6572 10.9277C12.7549 10.9082 12.8516 10.877 12.9473 10.834L12.4463 10.0811L12.7686 9.88184L13.2959 10.623C13.3447 10.584 13.3887 10.5469 13.4277 10.5117C13.4668 10.4746 13.501 10.4375 13.5303 10.4004L13.0967 9.88184L13.3398 9.60059L13.7588 10.0664C13.8252 9.94336 13.874 9.81543 13.9053 9.68262C13.9385 9.54785 13.9551 9.40918 13.9551 9.2666ZM12.5635 8.69531C12.3701 8.88867 12.1914 9.09277 12.0273 9.30762C11.8652 9.52246 11.7178 9.74902 11.585 9.9873L11.4121 9.98145C11.5195 9.7373 11.6484 9.49609 11.7988 9.25781C11.9512 9.01953 12.124 8.78223 12.3174 8.5459L12.5635 8.69531ZM16.7617 7.30664C16.627 7.81836 16.5137 8.2627 16.4219 8.63965C16.332 9.01465 16.2646 9.32227 16.2197 9.5625C16.1494 9.94336 16.0947 10.3281 16.0557 10.7168C16.0186 11.1055 15.9971 11.4951 15.9912 11.8857L15.2939 11.9648C15.2764 11.7695 15.2627 11.5703 15.2529 11.3672C15.2451 11.1621 15.2412 10.9512 15.2412 10.7344C15.2412 10.1914 15.2686 9.61719 15.3232 9.01172C15.3779 8.40625 15.46 7.77051 15.5693 7.10449L16.7617 7.30664ZM16.3047 7.94824L16.1992 7.81348C16.0625 8.03223 15.9385 8.27246 15.8271 8.53418C15.7178 8.79395 15.6201 9.07422 15.5342 9.375L15.8008 9.48926C15.8477 9.21777 15.9131 8.9541 15.9971 8.69824C16.0811 8.44043 16.1836 8.19043 16.3047 7.94824ZM23.6406 7.13965L23.0957 7.94824L22.6328 7.78418L21.4492 11.8359L21.2324 11.9355L20.0137 8.90332L18.502 12.0996L18.3818 11.5283L17.9805 11.6719L17.9189 11.4082L18.3379 11.2734L18.2324 10.7959L17.8311 10.9219L17.7695 10.6377L18.1885 10.5293L18.083 9.9873L17.6963 10.1514L17.5762 9.86719L18.0244 9.68848L17.9189 9.16113L17.418 9.28125L17.3447 9.01758L17.8604 8.88281L17.7549 8.32031L17.3682 8.46973L17.292 8.22656L17.6963 8.08301L17.5762 7.42676L17.2041 7.5498L17.0986 7.24219L18.0537 6.92871L19.0791 10.002L20.5586 6.82617L21.666 9.58301L22.5479 6.79688L23.6406 7.13965ZM21.4697 10.1309L20.4414 7.68457L20.2451 8.06836L21.3057 10.708L21.4697 10.1309ZM25.1582 7.30664C25.0234 7.81836 24.9102 8.2627 24.8184 8.63965C24.7285 9.01465 24.6611 9.32227 24.6162 9.5625C24.5459 9.94336 24.4912 10.3281 24.4521 10.7168C24.415 11.1055 24.3936 11.4951 24.3877 11.8857L23.6904 11.9648C23.6729 11.7695 23.6592 11.5703 23.6494 11.3672C23.6416 11.1621 23.6377 10.9512 23.6377 10.7344C23.6377 10.1914 23.665 9.61719 23.7197 9.01172C23.7744 8.40625 23.8564 7.77051 23.9658 7.10449L25.1582 7.30664ZM24.7012 7.94824L24.5957 7.81348C24.459 8.03223 24.335 8.27246 24.2236 8.53418C24.1143 8.79395 24.0166 9.07422 23.9307 9.375L24.1973 9.48926C24.2441 9.21777 24.3096 8.9541 24.3936 8.69824C24.4775 8.44043 24.5801 8.19043 24.7012 7.94824Z" fill="white"/>
<path d="M10.1299 12.616H11.292V12.9458H11.2151C11.141 12.9458 11.0955 12.9498 11.0784 12.9578C11.051 12.9703 11.0311 12.988 11.0186 13.0107C11.0072 13.0335 11.0015 13.0763 11.0015 13.1389V13.7729L11.7449 13.0842C11.7779 13.0535 11.7979 13.033 11.8047 13.0227C11.8115 13.0113 11.8149 13.0016 11.8149 12.9937C11.8149 12.9777 11.8081 12.9657 11.7944 12.9578C11.7819 12.9498 11.7489 12.9458 11.6953 12.9458H11.5996V12.616H12.678V12.9458H12.6421C12.592 12.9458 12.5572 12.9486 12.5378 12.9543C12.5185 12.9589 12.4945 12.9697 12.4661 12.9868C12.4387 13.0039 12.4028 13.0318 12.3584 13.0706L11.7825 13.5696L12.4695 14.4976C12.5287 14.5773 12.572 14.6246 12.5994 14.6394C12.6358 14.6599 12.6882 14.6702 12.7566 14.6702H12.8027V15H11.5996V14.6702H11.6475C11.7352 14.6702 11.7882 14.6662 11.8064 14.6582C11.8258 14.6502 11.8354 14.64 11.8354 14.6274C11.8354 14.6138 11.8178 14.5813 11.7825 14.53L11.3638 13.9336L11.0015 14.2429V14.4839C11.0015 14.5431 11.0072 14.5841 11.0186 14.6069C11.0299 14.6297 11.0459 14.6462 11.0664 14.6565C11.0881 14.6656 11.1308 14.6702 11.1946 14.6702H11.292V15H10.1299V14.6702H10.217C10.2843 14.6702 10.3293 14.665 10.3521 14.6548C10.3748 14.6434 10.3914 14.6257 10.4016 14.6018C10.4107 14.5824 10.4153 14.5357 10.4153 14.4617V13.1594C10.4153 13.0888 10.4102 13.0415 10.3999 13.0176C10.3896 12.9937 10.3731 12.976 10.3503 12.9646C10.3276 12.9521 10.2865 12.9458 10.2273 12.9458H10.1299V12.616ZM13.8794 13.2534C14.0742 13.2534 14.244 13.2916 14.3887 13.3679C14.5334 13.4443 14.6444 13.5485 14.7219 13.6807C14.8005 13.8117 14.8398 13.9655 14.8398 14.1421C14.8398 14.4087 14.7533 14.6252 14.5801 14.7915C14.4069 14.9578 14.1756 15.041 13.8862 15.041C13.5911 15.041 13.3564 14.9573 13.1821 14.7898C13.0135 14.6303 12.9292 14.4144 12.9292 14.1421C12.9292 13.9632 12.9674 13.8094 13.0437 13.6807C13.1212 13.5519 13.2328 13.4488 13.3787 13.3713C13.5245 13.2927 13.6914 13.2534 13.8794 13.2534ZM13.8862 13.6277C13.8213 13.6277 13.7603 13.6471 13.7034 13.6858C13.6464 13.7245 13.602 13.7815 13.5701 13.8567C13.5393 13.9319 13.5239 14.0276 13.5239 14.1438C13.5239 14.2634 13.5393 14.3625 13.5701 14.4412C13.6008 14.5198 13.643 14.5779 13.6965 14.6155C13.7512 14.6531 13.811 14.6719 13.876 14.6719C13.9762 14.6719 14.0623 14.6297 14.134 14.5454C14.2058 14.46 14.2417 14.3278 14.2417 14.1489C14.2417 13.9757 14.2081 13.8459 14.1409 13.7593C14.0748 13.6715 13.9899 13.6277 13.8862 13.6277ZM18.2783 15H15.1235V14.6702H15.1731C15.254 14.6702 15.3047 14.6622 15.3252 14.6462C15.3468 14.6292 15.3577 14.5881 15.3577 14.5232V13.7729C15.3577 13.708 15.3474 13.667 15.3269 13.6499C15.3064 13.6328 15.2551 13.6243 15.1731 13.6243H15.1235V13.2944H16.0891V13.6243C15.9957 13.6243 15.9399 13.6322 15.9216 13.6482C15.9045 13.663 15.896 13.7091 15.896 13.7866V14.6309H16.4343V13.7866C16.4343 13.7091 16.4252 13.663 16.407 13.6482C16.3888 13.6322 16.3335 13.6243 16.2412 13.6243V13.2944H17.1606V13.6243C17.0672 13.6243 17.0114 13.6322 16.9932 13.6482C16.9761 13.663 16.9675 13.7091 16.9675 13.7866V14.6309H17.5059V13.7866C17.5059 13.7091 17.4967 13.663 17.4785 13.6482C17.4603 13.6322 17.405 13.6243 17.3127 13.6243V13.2944H18.2783V13.6243H18.2288C18.1467 13.6243 18.0955 13.6328 18.075 13.6499C18.0544 13.667 18.0442 13.708 18.0442 13.7729V14.5232C18.0442 14.587 18.0544 14.6274 18.075 14.6445C18.0955 14.6616 18.1467 14.6702 18.2288 14.6702H18.2783V15ZM20.1086 14.3677L20.3428 14.6035C20.2083 14.7573 20.071 14.869 19.9309 14.9385C19.7919 15.0068 19.6415 15.041 19.4797 15.041C19.22 15.041 19.0012 14.9533 18.8235 14.7778C18.6458 14.6012 18.5569 14.3882 18.5569 14.1387C18.5569 13.9746 18.5968 13.8248 18.6765 13.6892C18.7563 13.5525 18.8668 13.446 19.0081 13.3696C19.1493 13.2922 19.3094 13.2534 19.4883 13.2534C19.6022 13.2534 19.7059 13.2699 19.7993 13.303C19.8927 13.336 19.9742 13.3833 20.0437 13.4448C20.1143 13.5063 20.1707 13.581 20.2129 13.6687C20.2562 13.7553 20.2858 13.8453 20.3018 13.9387C20.3086 13.9854 20.312 14.0595 20.312 14.1609H19.1619C19.1641 14.3056 19.2063 14.4229 19.2883 14.5129C19.3715 14.6018 19.4729 14.6462 19.5925 14.6462C19.6689 14.6462 19.752 14.6235 19.842 14.5779C19.932 14.5312 20.0209 14.4611 20.1086 14.3677ZM19.7668 13.8738C19.7589 13.8054 19.7424 13.7519 19.7173 13.7131C19.6934 13.6733 19.6603 13.6419 19.6182 13.6191C19.5771 13.5952 19.5339 13.5833 19.4883 13.5833C19.4404 13.5833 19.3943 13.5952 19.3499 13.6191C19.3054 13.6431 19.2695 13.6755 19.2422 13.7166C19.216 13.7576 19.1989 13.81 19.1909 13.8738H19.7668ZM21.3477 15H20.4402V14.6702C20.5256 14.669 20.582 14.6616 20.6094 14.6479C20.6367 14.6331 20.6663 14.591 20.6982 14.5215L21.2571 13.2944H21.7151L22.2979 14.5591C22.332 14.6331 22.3924 14.6702 22.479 14.6702H22.532V15H21.4844V14.6702H21.5374C21.6057 14.6702 21.649 14.6645 21.6672 14.6531C21.6866 14.6405 21.6963 14.6235 21.6963 14.6018C21.6963 14.5847 21.6889 14.5579 21.6741 14.5215L21.4075 13.8584L21.134 14.5215C21.1181 14.5602 21.1101 14.5881 21.1101 14.6052C21.1101 14.6485 21.1625 14.6702 21.2673 14.6702H21.3477V15ZM24.1624 14.3677L24.3965 14.6035C24.262 14.7573 24.1248 14.869 23.9846 14.9385C23.8456 15.0068 23.6952 15.041 23.5334 15.041C23.2737 15.041 23.0549 14.9533 22.8772 14.7778C22.6995 14.6012 22.6106 14.3882 22.6106 14.1387C22.6106 13.9746 22.6505 13.8248 22.7302 13.6892C22.81 13.5525 22.9205 13.446 23.0618 13.3696C23.203 13.2922 23.3631 13.2534 23.542 13.2534C23.6559 13.2534 23.7596 13.2699 23.853 13.303C23.9465 13.336 24.0279 13.3833 24.0974 13.4448C24.1681 13.5063 24.2244 13.581 24.2666 13.6687C24.3099 13.7553 24.3395 13.8453 24.3555 13.9387C24.3623 13.9854 24.3657 14.0595 24.3657 14.1609H23.2156C23.2179 14.3056 23.26 14.4229 23.342 14.5129C23.4252 14.6018 23.5266 14.6462 23.6462 14.6462C23.7226 14.6462 23.8057 14.6235 23.8958 14.5779C23.9858 14.5312 24.0746 14.4611 24.1624 14.3677ZM23.8206 13.8738C23.8126 13.8054 23.7961 13.7519 23.771 13.7131C23.7471 13.6733 23.714 13.6419 23.6719 13.6191C23.6309 13.5952 23.5876 13.5833 23.542 13.5833C23.4941 13.5833 23.448 13.5952 23.4036 13.6191C23.3591 13.6431 23.3232 13.6755 23.2959 13.7166C23.2697 13.7576 23.2526 13.81 23.2446 13.8738H23.8206ZM24.6699 15V14.6702H24.7195C24.8106 14.6702 24.867 14.6622 24.8887 14.6462C24.9115 14.6303 24.9229 14.5893 24.9229 14.5232V13.7729C24.9229 13.7069 24.912 13.6659 24.8904 13.6499C24.8687 13.6328 24.8118 13.6243 24.7195 13.6243H24.6699V13.2944H25.615V13.6243C25.5466 13.6243 25.505 13.6334 25.4902 13.6516C25.4766 13.6698 25.4697 13.7074 25.4697 13.7644V14.031L25.8337 13.749C25.8827 13.7114 25.9072 13.6835 25.9072 13.6653C25.9072 13.6379 25.8588 13.6243 25.762 13.6243V13.2944H26.7532V13.6243C26.6871 13.6243 26.6364 13.6311 26.6011 13.6448C26.5658 13.6584 26.5071 13.6932 26.425 13.749L26.0645 13.9951L26.5361 14.5437C26.5863 14.6018 26.6261 14.6377 26.6558 14.6514C26.6865 14.6639 26.7452 14.6702 26.8318 14.6702V15H25.7944V14.6702H25.8337C25.9021 14.6702 25.9363 14.6565 25.9363 14.6292C25.9363 14.6121 25.9181 14.5796 25.8816 14.5317L25.6851 14.2788L25.4697 14.4395V14.5317C25.4697 14.5864 25.4783 14.6235 25.4954 14.6428C25.5136 14.6611 25.5478 14.6702 25.5979 14.6702H25.6338V15H24.6699Z" fill="white"/>
<defs>
<clipPath id="clip0_1_59">
<rect width="8" height="8" fill="white" transform="translate(1 7)"/>
</clipPath>
</defs>
</svg>
