<svg width="28" height="22" viewBox="0 0 28 22" fill="none" xmlns="http://www.w3.org/2000/svg">
<rect width="28" height="22" rx="3" fill="#1A1A1A"/>
<rect x="2" y="17" width="24" height="2" fill="white"/>
<rect x="2" y="3" width="24" height="2" fill="white"/>
<path d="M9.38525 8.19287L7.021 15H5.38184L3.04834 8.19287H4.61279L6.08496 13.0049C6.1582 13.2422 6.20361 13.4663 6.22119 13.6772H6.24756C6.271 13.4604 6.3208 13.2305 6.39697 12.9873L7.86914 8.19287H9.38525ZM11.666 8.19287V15H10.2158V8.19287H11.666ZM12.9316 13.2861C13.4795 13.7402 14.1021 13.9673 14.7993 13.9673C15.1948 13.9673 15.4922 13.8999 15.6914 13.7651C15.8906 13.6274 15.9902 13.4517 15.9902 13.2378C15.9902 13.0532 15.9111 12.8789 15.7529 12.7148C15.5947 12.5508 15.1772 12.3281 14.5005 12.0469C13.437 11.5957 12.9053 10.9395 12.9053 10.0781C12.9053 9.44531 13.1455 8.95459 13.626 8.60596C14.1094 8.25439 14.748 8.07861 15.542 8.07861C16.207 8.07861 16.7651 8.16504 17.2163 8.33789V9.7002C16.7593 9.38965 16.2246 9.23438 15.6123 9.23438C15.2549 9.23438 14.9692 9.30029 14.7554 9.43213C14.5415 9.56104 14.4346 9.73535 14.4346 9.95508C14.4346 10.1309 14.5078 10.2935 14.6543 10.4429C14.8008 10.5894 15.1626 10.7886 15.7397 11.0405C16.4165 11.3306 16.8809 11.6367 17.1328 11.959C17.3877 12.2812 17.5151 12.665 17.5151 13.1104C17.5151 13.7637 17.2837 14.2617 16.8208 14.6045C16.3579 14.9473 15.7002 15.1187 14.8477 15.1187C14.0684 15.1187 13.4297 14.9927 12.9316 14.7407V13.2861ZM24.564 15H22.9819L22.4722 13.4399H19.998L19.4971 15H17.9238L20.4155 8.19287H22.1206L24.564 15ZM22.1294 12.3193L21.356 9.95947C21.3062 9.81006 21.271 9.6123 21.2505 9.36621H21.2109C21.1934 9.56543 21.1538 9.75732 21.0923 9.94189L20.3145 12.3193H22.1294Z" fill="white"/>
<path d="M1.49995 8.19273H4.61323L3.49995 8.5L1.24155 8.19273H1.49995Z" fill="white"/>
</svg>
