<svg width="28" height="22" viewBox="0 0 28 22" fill="none" xmlns="http://www.w3.org/2000/svg">
<rect width="28" height="22" rx="3" fill="#1A1A1A"/>
<path d="M2.55043 6.72727H4.72727L6.57386 11.2301H6.65909L8.50568 6.72727H10.6825V14H8.97088V9.53267H8.91051L7.16335 13.9538H6.0696L4.32244 9.50781H4.26207V14H2.55043V6.72727ZM11.7789 6.72727H13.5332V10.9176H13.5936L16.4558 6.72727H17.9686V14H16.2108V9.80256H16.1646L13.2669 14H11.7789V6.72727ZM19.6014 7.07C20.6281 6.74 21.6658 6.575 22.7144 6.575C23.7631 6.575 24.5698 6.751 25.1344 7.103C25.2664 7.499 25.3324 7.87667 25.3324 8.236C25.3324 9.07933 24.9841 9.787 24.2874 10.359C23.5908 10.9237 22.6924 11.3307 21.5924 11.58L21.3284 14.044L20.2284 14.154L19.6014 7.07ZM23.2094 8.555C23.2094 7.99033 22.9784 7.56867 22.5164 7.29C22.3844 7.29 22.2231 7.31567 22.0324 7.367L21.6694 10.832C22.1461 10.568 22.5201 10.227 22.7914 9.809C23.0701 9.391 23.2094 8.973 23.2094 8.555Z" fill="white"/>
<rect x="20" y="14" width="2" height="1" fill="#191919"/>
<path d="M22.34 10L15 9.5L22.34 9L22.34 9.5L22.34 10Z" fill="#191919"/>
</svg>
